<?xml version="1.0" encoding="UTF-8"?>
<svg id="_レイヤー_1" xmlns="http://www.w3.org/2000/svg" version="1.1" viewBox="0 0 51.02 51.02">
  <!-- Generator: Adobe Illustrator 29.5.1, SVG Export Plug-In . SVG Version: 2.1.0 Build 141)  -->
  <defs>
    <style>
      .st0 {
        fill: none;
        stroke: #fff;
        stroke-miterlimit: 10;
      }

      .st1, .st2, .st3 {
        isolation: isolate;
      }

      .st4, .st2 {
        fill: #fff;
      }

      .st2 {
        font-family: Futura-Medium, Futura;
        font-size: 14.7px;
        font-weight: 500;
      }

      .st5 {
        fill: #231815;
      }

      .st5, .st3, .st6 {
        display: none;
      }
    </style>
  </defs>
  <rect class="st5" x="-934.49" y="-31.59" width="1920" height="114.21"/>
  <g id="_H2_--_Contact_Us" class="st3">
    <g class="st1">
      <g class="st1">
        <g class="st1">
          <g class="st1">
            <text class="st2" transform="translate(858.97 29.8)"><tspan x="0" y="0">+ Contact Us</tspan></text>
          </g>
        </g>
      </g>
    </g>
  </g>
  <g id="_グループ_2" class="st6">
    <g id="_H2_--Search" class="st1">
      <g class="st1">
        <g class="st1">
          <g class="st1">
            <g class="st1">
              <text class="st2" transform="translate(23.23 30.96)"><tspan x="0" y="0">Search</tspan></text>
            </g>
          </g>
        </g>
      </g>
    </g>
    <g id="_グループ_1">
      <path id="Icon-2" class="st4" d="M-9.86,15.34c4.91.12,8.78,4.19,8.68,9.09.11,4.91-3.78,8.97-8.68,9.09-4.91-.12-8.78-4.19-8.68-9.09-.11-4.91,3.78-8.97,8.68-9.09ZM-9.86,32.61c4.4-.12,7.86-3.78,7.76-8.18.11-4.4-3.36-8.06-7.76-8.18-4.4.12-7.87,3.78-7.76,8.18-.11,4.4,3.36,8.06,7.76,8.18Z"/>
      <path id="Icon-3" class="st4" d="M.41,35.69c-.13,0-.25-.06-.33-.15l-4.47-4.69c-.17-.18-.17-.48.02-.65s.48-.17.65.02l4.47,4.69c.17.18.17.48-.02.65-.08.08-.2.13-.32.13H.41Z"/>
    </g>
  </g>
  <g id="bag">
    <path id="_パス_3" class="st0" d="M30.38,19.84h4.06v18.25h-17.85v-18.25h13.8-.01Z"/>
    <path id="_パス_4" class="st0" d="M21.45,22.27v-5.27c0-2.24,1.82-4.06,4.06-4.06s4.06,1.82,4.06,4.06v5.27"/>
  </g>
</svg>