<?xml version="1.0" encoding="UTF-8"?>
<svg id="_レイヤー_1" xmlns="http://www.w3.org/2000/svg" version="1.1" viewBox="0 0 97.86 42.77">
  <!-- Generator: Adobe Illustrator 29.5.1, SVG Export Plug-In . SVG Version: 2.1.0 Build 141)  -->
  <defs>
    <style>
      .st0 {
        fill: #fff;
      }
    </style>
  </defs>
  <g id="g16">
    <g id="g22">
      <path id="path24" class="st0" d="M11.67,42.38l-7.76-9.82,5.55-6.07c1.43-1.58,1.4-2.62.71-3.38v-.05h4.28v.05c-1.62.79-3.04,1.92-4.17,3.33l-4.54,4.94,6.15,7.81c1.37,1.71,2.06,2.4,3.3,3.14l.03.05s-3.55,0-3.55,0ZM0,42.33c.87-1.35,1.06-2.12,1.06-3.91v-11.41c.11-1.38-.26-2.77-1.06-3.91v-.05h4.28v.05c-.87,1.35-1.06,2.08-1.06,3.91v11.41c0,1.82.19,2.56,1.06,3.91v.05H0v-.05Z"/>
    </g>
    <g id="g26">
      <path id="path28" class="st0" d="M24.87,25.66l-3.27,8.9h6.5l-3.22-8.9h0ZM20.6,42.38h-3.23v-.05c1.11-1.11,1.43-1.92,2.12-3.77l5.84-15.74h.63l5.92,16.01c.8,2.12,1.13,2.72,2.03,3.51v.05h-4.2v-.05c.39-.61.56-1.85-.11-3.61l-1.32-3.62h-6.89l-1.08,2.96c-.87,2.32-.26,3.59.29,4.28v.05h0s0-.02,0-.02Z"/>
    </g>
    <g id="g30">
      <path id="path32" class="st0" d="M37.89,42.33c.78-.92,1.15-2.1,1.06-3.3v-5.57l-4.18-7.29c-.9-1.56-1.58-2.43-2.56-3.06v-.05h4.96v.05c-.8.48-.71,1.64-.05,2.82l3.81,6.78,3.14-5.33c1.32-2.25.84-3.54.13-4.28v-.05h3.75v.05c-1.4,1.08-1.9,1.98-3.12,4.01l-3.72,6.31v5.6c-.12,1.2.26,2.39,1.06,3.3v.05h-4.28v-.05h0Z"/>
    </g>
    <g id="g34">
      <path id="path36" class="st0" d="M60.47,27.61l-.21.08c-1.43-3.49-3.25-4.51-5.23-4.51-2.43,0-3.56,1.48-3.56,3.27,0,2.67,2.4,3.61,4.91,4.78,2.67,1.21,5.41,2.54,5.41,6.13,0,3.88-3.17,5.41-6.79,5.41-1.79,0-3.56-.36-5.23-1l-.53-4.28.21-.09c1.58,3.36,3.44,4.83,6.17,4.83s4.18-1.67,4.18-3.91c0-2.88-2.19-4.01-4.59-5.09-2.69-1.24-5.44-2.42-5.44-5.8s2.59-4.78,5.89-4.78c1.46,0,2.91.28,4.28.79l.53,4.17h0Z"/>
    </g>
    <g id="g38">
      <path id="path40" class="st0" d="M77.48,42.38h-12.97v-.05c.67-1.1,1.03-2.35,1.03-3.64v-11.93c0-1.29-.36-2.55-1.03-3.64v-.05h11.65l1.03,4.22-.21.08c-1.32-1.56-2.72-3.64-3.7-3.7l-5.55-.19v8.93h3.33c.98,0,1.82-1.58,2.54-2.51h.21v5.39h-.21c-.69-.8-1.56-2.35-2.54-2.35h-3.33v9.03l5.76-.19c1.9-.08,3.49-2.06,4.94-4.2l.21.08-1.16,4.73h0Z"/>
    </g>
    <g id="g42">
      <path id="path44" class="st0" d="M83,25.71l.11,12.28c0,1.98.34,2.8,1.85,4.33v.05h-3.91v-.05c1.19-1.53,1.45-2.35,1.45-4.33v-12.01c-.29-1.2-1.04-2.22-2.08-2.88v-.05h3.19l12.31,16.01-.09-11.62c.12-1.6-.47-3.19-1.61-4.33v-.05h3.64v.05c-1.19,1.53-1.45,2.35-1.45,4.33v14.94l-.56.08-12.86-16.74h.01Z"/>
    </g>
    <g id="g46">
      <path id="path48" class="st0" d="M48.93,18.19c-.3-.6-.86-1.03-1.51-1.18-.63-.07-1.21-.36-1.64-.83.25.07.51.11.76.11.66,0,1.8-.29,2.05-2.28v-.12l-.07-.09c-.15-.16-.36-.25-.56-.24-.13,0-.26.01-.39.04l-.14.02c-.09.01-.19.04-.29.04-.06,0-.1,0-.16-.1s-.05-.16.12-.38l.07-.09c.13-.23.16-.49.09-.75-.18-1-.71-1.89-1.5-2.52-.43-.34-.96-.53-1.52-.56-.71,0-1.35.43-1.6,1.11-.16.41-.14.86.05,1.25-1.09-.21-1.84-1.2-1.73-2.32.03-1.23,1.06-2.22,2.29-2.18h.09c.33,0,.66.05.98.15,1.83.54,3.33,3.51,3.29,5.55v.2l1.13.19v-.28c0-1.77-.34-3.51-1.03-5.13-.46-1.01-.72-2.11-.75-3.22,0-1.84,1.4-3.81,1.97-4.58.57.77,1.97,2.74,1.97,4.58-.02,1.11-.29,2.21-.75,3.22-.71,1.62-1.06,3.37-1.03,5.13v.28l1.14-.2v-.2c-.05-2.05,1.46-5.01,3.29-5.55.32-.09.65-.15.98-.15,1.23-.08,2.3.86,2.38,2.09v.09c.11,1.1-.64,2.1-1.73,2.32.19-.39.22-.84.06-1.25-.24-.67-.88-1.11-1.6-1.11-.56.02-1.08.21-1.53.56-.8.62-1.33,1.51-1.5,2.51-.06.26-.03.53.1.76l.07.09c.16.21.19.26.12.36s-.09.11-.16.11c-.1,0-.2-.01-.29-.04l-.14-.02c-.13-.02-.26-.04-.39-.04-.21,0-.42.09-.56.24l-.09.09v.12c.26,1.98,1.4,2.28,2.06,2.28.26,0,.52-.04.77-.12-.42.47-1.01.77-1.64.83-.66.15-1.21.58-1.52,1.19"/>
    </g>
  </g>
</svg>