<?xml version="1.0" encoding="UTF-8"?>
<svg id="_レイヤー_1" xmlns="http://www.w3.org/2000/svg" version="1.1" viewBox="0 0 107.72 51.02">
  <!-- Generator: Adobe Illustrator 29.5.1, SVG Export Plug-In . SVG Version: 2.1.0 Build 141)  -->
  <defs>
    <style>
      .st0, .st1 {
        isolation: isolate;
      }

      .st2, .st1 {
        fill: #fff;
      }

      .st1 {
        font-family: Futura-Medium, Futura;
        font-size: 14.7px;
        font-weight: 500;
      }

      .st3 {
        fill: #231815;
      }

      .st3, .st4 {
        display: none;
      }
    </style>
  </defs>
  <rect class="st3" x="-906.14" y="-31.59" width="1920" height="114.21"/>
  <g id="_H2_--_Contact_Us" class="st0">
    <g class="st0">
      <g class="st0">
        <g class="st0">
          <text class="st1" transform="translate(10.78 29.86)"><tspan x="0" y="0">+ Contact Us</tspan></text>
        </g>
      </g>
    </g>
  </g>
  <g id="_グループ_2" class="st4">
    <g id="_H2_--Search" class="st0">
      <g class="st0">
        <g class="st0">
          <g class="st0">
            <text class="st1" transform="translate(51.58 30.96)"><tspan x="0" y="0">Search</tspan></text>
          </g>
        </g>
      </g>
    </g>
    <g id="_グループ_1">
      <path id="Icon-2" class="st2" d="M18.49,15.34c4.91.12,8.78,4.19,8.68,9.09.11,4.91-3.78,8.97-8.68,9.09-4.91-.12-8.78-4.19-8.68-9.09-.11-4.91,3.78-8.97,8.68-9.09ZM18.49,32.61c4.4-.12,7.86-3.78,7.76-8.18.11-4.4-3.36-8.06-7.76-8.18-4.4.12-7.87,3.78-7.76,8.18-.11,4.4,3.36,8.06,7.76,8.18Z"/>
      <path id="Icon-3" class="st2" d="M28.76,35.69c-.13,0-.25-.06-.33-.15l-4.47-4.69c-.17-.18-.17-.48.02-.65s.48-.17.65.02l4.47,4.69c.17.18.17.48-.02.65-.08.08-.2.13-.32.13h0Z"/>
    </g>
  </g>
</svg>