<?xml version="1.0" encoding="UTF-8"?>
<svg id="_レイヤー_1" xmlns="http://www.w3.org/2000/svg" version="1.1" viewBox="0 0 51.02 51.02">
  <!-- Generator: Adobe Illustrator 29.5.1, SVG Export Plug-In . SVG Version: 2.1.0 Build 141)  -->
  <defs>
    <style>
      .st0, .st1, .st2 {
        isolation: isolate;
      }

      .st3, .st1 {
        fill: #fff;
      }

      .st1 {
        font-family: Futura-Medium, Futura;
        font-size: 14.7px;
        font-weight: 500;
      }

      .st4 {
        fill: #231815;
      }

      .st4, .st2, .st5 {
        display: none;
      }

      .st6 {
        fill: none;
        stroke: #fff;
        stroke-linecap: round;
        stroke-linejoin: round;
      }
    </style>
  </defs>
  <rect class="st4" x="-934.49" y="-31.59" width="1920" height="114.21"/>
  <g id="_H2_--_Contact_Us" class="st2">
    <g class="st0">
      <g class="st0">
        <g class="st0">
          <g class="st0">
            <text class="st1" transform="translate(858.97 29.8)"><tspan x="0" y="0">+ Contact Us</tspan></text>
          </g>
        </g>
      </g>
    </g>
  </g>
  <g id="_グループ_2" class="st5">
    <g id="_H2_--Search" class="st0">
      <g class="st0">
        <g class="st0">
          <g class="st0">
            <g class="st0">
              <text class="st1" transform="translate(23.23 30.96)"><tspan x="0" y="0">Search</tspan></text>
            </g>
          </g>
        </g>
      </g>
    </g>
    <g id="_グループ_1">
      <path id="Icon-2" class="st3" d="M-9.86,15.34c4.91.12,8.78,4.19,8.68,9.09.11,4.91-3.78,8.97-8.68,9.09-4.91-.12-8.78-4.19-8.68-9.09-.11-4.91,3.78-8.97,8.68-9.09ZM-9.86,32.61c4.4-.12,7.86-3.78,7.76-8.18.11-4.4-3.36-8.06-7.76-8.18-4.4.12-7.87,3.78-7.76,8.18-.11,4.4,3.36,8.06,7.76,8.18Z"/>
      <path id="Icon-3" class="st3" d="M.41,35.69c-.13,0-.25-.06-.33-.15l-4.47-4.69c-.17-.18-.17-.48.02-.65s.48-.17.65.02l4.47,4.69c.17.18.17.48-.02.65-.08.08-.2.13-.32.13H.41Z"/>
    </g>
  </g>
  <path id="Icon" class="st6" d="M14.88,25.51h21.27M14.88,16.57h21.27M14.88,34.45h21.27"/>
</svg>