<?xml version="1.0" encoding="UTF-8"?>
<svg id="_レイヤー_1" xmlns="http://www.w3.org/2000/svg" version="1.1" viewBox="0 0 107.72 51.02">
  <!-- Generator: Adobe Illustrator 29.5.1, SVG Export Plug-In . SVG Version: 2.1.0 Build 141)  -->
  <defs>
    <style>
      .st0 {
        stroke-miterlimit: 10;
      }

      .st0, .st1 {
        fill: none;
        stroke: #fff;
      }

      .st2, .st3, .st4 {
        isolation: isolate;
      }

      .st5, .st3 {
        fill: #fff;
      }

      .st3 {
        font-family: Futura-Medium, Futura;
        font-size: 14.7px;
        font-weight: 500;
      }

      .st6 {
        fill: #231815;
      }

      .st6, .st4, .st7 {
        display: none;
      }

      .st1 {
        stroke-linecap: round;
        stroke-linejoin: round;
      }
    </style>
  </defs>
  <rect class="st6" x="-906.14" y="-31.59" width="1920" height="114.21"/>
  <g id="_H2_--_Contact_Us" class="st4">
    <g class="st2">
      <g class="st2">
        <g class="st2">
          <text class="st3" transform="translate(887.32 29.8)"><tspan x="0" y="0">+ Contact Us</tspan></text>
        </g>
      </g>
    </g>
  </g>
  <g id="menu">
    <g id="_H2_--Menu" class="st2">
      <g class="st2">
        <g class="st2">
          <g class="st2">
            <text class="st3" transform="translate(57.58 30.51)"><tspan x="0" y="0">Menu</tspan></text>
          </g>
        </g>
      </g>
    </g>
    <path id="Icon" class="st1" d="M11.79,25.21h21.27M11.79,16.27h21.27M11.79,34.15h21.27"/>
  </g>
  <g id="_グループ_2" class="st7">
    <g id="_H2_--Search" class="st2">
      <g class="st2">
        <g class="st2">
          <g class="st2">
            <text class="st3" transform="translate(-632.7 30.96)"><tspan x="0" y="0">Search</tspan></text>
          </g>
        </g>
      </g>
    </g>
    <g id="_グループ_1">
      <path id="Icon-2" class="st5" d="M-665.79,15.34c4.91.12,8.78,4.19,8.68,9.09.11,4.91-3.78,8.97-8.68,9.09-4.91-.12-8.78-4.19-8.68-9.09-.11-4.91,3.78-8.97,8.68-9.09ZM-665.79,32.61c4.4-.12,7.86-3.78,7.76-8.18.11-4.4-3.36-8.06-7.76-8.18-4.4.12-7.87,3.78-7.76,8.18-.11,4.4,3.36,8.06,7.76,8.18Z"/>
      <path id="Icon-3" class="st5" d="M-655.52,35.69c-.13,0-.25-.06-.33-.15l-4.47-4.69c-.17-.18-.17-.48.02-.65s.48-.17.65.02l4.47,4.69c.17.18.17.48-.02.65-.08.08-.2.13-.32.13h0Z"/>
    </g>
  </g>
  <g id="_H2_--Cart" class="st4">
    <g class="st2">
      <g class="st2">
        <g class="st2">
          <text class="st3" transform="translate(-437.84 29.8)"><tspan x="0" y="0">Cart</tspan></text>
        </g>
      </g>
    </g>
  </g>
  <g id="bag" class="st7">
    <path id="_パス_3" class="st0" d="M-470.6,19.84h4.06v18.25h-17.85v-18.25h13.8,0Z"/>
    <path id="_パス_4" class="st0" d="M-479.53,22.27v-5.27c0-2.24,1.82-4.06,4.06-4.06s4.06,1.82,4.06,4.06v5.27"/>
  </g>
</svg>